<?xml version="1.0" encoding="UTF-8" standalone="no"?>
<svg
   xmlns:dc="http://purl.org/dc/elements/1.1/"
   xmlns:cc="http://creativecommons.org/ns#"
   xmlns:rdf="http://www.w3.org/1999/02/22-rdf-syntax-ns#"
   xmlns:svg="http://www.w3.org/2000/svg"
   xmlns="http://www.w3.org/2000/svg"
   viewBox="0 0 1171.2 452.176"
   height="452.176"
   width="1171.2"
   xml:space="preserve"
   id="svg2"
   version="1.1"><metadata
     id="metadata8"><rdf:RDF><cc:Work
         rdf:about=""><dc:format>image/svg+xml</dc:format><dc:type
           rdf:resource="http://purl.org/dc/dcmitype/StillImage" /></cc:Work></rdf:RDF></metadata><defs
     id="defs6"><clipPath
       id="clipPath20"
       clipPathUnits="userSpaceOnUse"><path
         id="path18"
         d="M 0,0 H 8784 V 4634.78 H 0 Z" /></clipPath></defs><g
     transform="matrix(1.3333333,0,0,-1.3333333,0,617.97333)"
     id="g10"><g
       transform="scale(0.1)"
       id="g12"><g
         id="g14"><g
           clip-path="url(#clipPath20)"
           id="g16">
             <path
             id="path44"
             style="fill:#a39f62;fill-opacity:1;fill-rule:nonzero;stroke:none"
             d="m 4825.96,2868.36 c 0,0 -59.44,-136.98 36.25,-310.43 119.43,-216.49 394.9,-482.88 339.81,-530.91 -99.24,-86.5 -498.59,-126.39 -554.85,-80.31 -98.14,80.38 -236.9,312.72 -289.21,516.49 -52.32,203.77 55.64,374.12 58.53,365.47 5.76,-17.3 409.47,39.69 409.47,39.69" /><path
             id="path46"
             style="fill:#5d574f;fill-opacity:1;fill-rule:nonzero;stroke:none"
             d="m 4481.61,2852.12 0.47,-1.42 c -0.13,0.49 -0.3,0.95 -0.47,1.42 z m 205.83,-848.88 c 60.89,-21.96 339.34,7.39 443.35,59.49 -22.91,40.98 -80.66,115.02 -125,171.84 -70.82,90.78 -151.08,193.68 -204.17,289.94 -56.5,102.4 -66.36,195.13 -62.04,262.34 -32.51,-4.26 -70.22,-9.05 -108.03,-13.55 -80.84,-9.61 -138.28,-16.44 -179.54,-17.2 -23.08,-49.54 -57.58,-156.58 -27,-275.71 48.12,-187.43 177.03,-404.16 262.43,-477.15 z m 86.47,-143.95 c -77.75,0 -141.89,10.37 -170.61,33.87 -116.99,95.84 -260.03,348.99 -312.38,552.83 -53.56,208.73 37.81,429.35 105.33,449.32 l 64,18.94 6.39,-18.57 c 69.95,4.76 220.43,22.96 349.65,41.21 l 122.33,17.27 -48.97,-112.84 c -2.7,-6.84 -42.61,-112.66 33.15,-249.96 47.78,-86.62 124.49,-184.92 192.15,-271.65 133.31,-170.89 213.76,-274.04 132.56,-344.84 -78.06,-68.04 -307.1,-115.58 -473.6,-115.58" /><path
             id="path48"
             style="fill:#a39f62;fill-opacity:1;fill-rule:nonzero;stroke:none"
             d="m 2641.98,2022.3 c -114.1,0 -382.19,28.32 -482.57,115.82 -20.62,17.96 -32.46,42.58 -33.32,69.28 -1.95,60.15 48.98,110.68 126.06,187.17 68.82,68.28 154.48,153.27 212.55,255.08 19.18,33.64 7.72,107.9 -30.67,198.67 -23.31,55.13 -17.5,117.78 15.55,167.63 33.23,50.16 88.75,80.1 148.48,80.1 7.03,0 14.18,-0.42 21.41,-1.27 71.4,-8.43 115.2,-12.47 142.06,-14.22 l 0.7,2.06 50.08,0.12 c 35.95,0 54.47,-23.81 74.05,-49 24.74,-31.82 240.35,-315.93 195.37,-492.8 -53.91,-211.99 -158.64,-393.71 -280.12,-486.08 -19.95,-15.16 -56.11,-32.56 -159.63,-32.56" /><path
             id="path50"
             style="fill:#5d574f;fill-opacity:1;fill-rule:nonzero;stroke:none"
             d="m 2598.07,3133.45 v 0 c -83,0 -160.08,-41.51 -206.18,-111.06 -45.9,-69.24 -53.97,-156.28 -21.6,-232.82 35.56,-84.07 36.31,-127.9 33.42,-138.95 -53.42,-92.99 -134.82,-173.75 -200.3,-238.72 -86.74,-86.06 -149.41,-148.25 -146.5,-238.52 1.49,-46.13 21.74,-88.47 57.02,-119.23 125.02,-108.98 423.55,-132.85 528.02,-132.85 98.23,0 158.5,13.96 201.54,46.68 133.54,101.51 247.68,297.44 305.31,524.11 50.69,199.32 -146.25,473.17 -207.82,552.35 -22.01,28.31 -58.86,75.7 -128.68,75.7 h -75.54 c -25,2.19 -60.04,5.77 -109.18,11.57 -9.79,1.15 -19.72,1.74 -29.51,1.74 z m -0.02,-138.42 c 4.37,0 8.82,-0.25 13.31,-0.78 72.81,-8.6 144.96,-15.91 179.6,-15.91 12.74,0 20.42,0.99 21.18,3.27 0.02,0.08 0.08,0.12 0.16,0.12 7.43,0 240.61,-305.09 202.36,-455.52 -57.46,-225.98 -164.36,-379.19 -254.93,-448.04 -16.53,-12.56 -60.71,-18.46 -117.78,-18.46 -142.83,0 -366.16,36.96 -437.07,98.78 -61.92,53.98 189.51,196.42 319.93,425.08 37.79,66.25 10.98,170.03 -27.04,259.92 -30.84,72.9 23.93,151.55 100.28,151.54" /><path
             id="path52"
             style="fill:#dfdb87;fill-opacity:1;fill-rule:nonzero;stroke:none"
             d="m 5258.9,1749.36 c -105.47,0 -141.86,18.72 -161.76,35.04 -116.99,95.81 -260.03,348.98 -312.38,552.81 -53.8,209.6 38.56,385.69 66.23,421.36 19.8,25.49 42.99,30.85 58.94,30.85 h 49.77 l 0.81,-2.42 c 87.69,5.7 276.02,30.72 349.62,41.11 l 122.33,17.27 -49.17,-113.36 c -1.52,-3.73 -43.32,-110.45 33.35,-249.43 47.79,-86.63 124.49,-184.93 192.15,-271.66 133.31,-170.89 213.76,-274.04 132.56,-344.85 -101.17,-88.16 -368.74,-116.72 -482.45,-116.72" /><path
             id="path54"
             style="fill:#5d574f;fill-opacity:1;fill-rule:nonzero;stroke:none"
             d="m 5563.67,2939.85 -263.22,-43.21 c -88.84,-12.54 -230.54,-30.82 -314.3,-38.26 l -76.22,0.24 c -25.78,-0.01 -74.75,-7.51 -113.63,-57.65 -39.37,-50.79 -138.34,-248.16 -78.57,-480.97 56.34,-219.45 206.88,-483.74 335.58,-589.15 43.38,-35.53 104.87,-50.69 205.62,-50.69 3.74,0 378.62,3.63 527.88,133.75 41.29,36 96.59,118.64 3.01,267.74 -31.28,49.83 -77.53,109.12 -126.5,171.89 -66.07,84.68 -140.94,180.67 -186.07,262.47 -55.29,100.22 -33.93,177.22 -29.77,189.91 l 116.19,233.93 z M 5319.8,2759.59 c 0,0 -59.44,-136.99 36.25,-310.44 119.43,-216.48 394.9,-482.88 339.81,-530.9 -70.77,-61.69 -294.19,-99.68 -436.93,-99.68 -57.43,0 -101.78,6.14 -117.92,19.36 -98.14,80.38 -236.9,312.72 -289.21,516.49 -51.04,198.8 50.46,365.78 58.13,365.79 0.19,0 0.32,-0.11 0.39,-0.32 0.77,-2.28 8.43,-3.27 21.18,-3.27 83.98,0 388.3,42.97 388.3,42.97" /><path
             id="path56"
             style="fill:#dfdb87;fill-opacity:1;fill-rule:nonzero;stroke:none"
             d="m 1984.69,2487.41 c 140.21,-29.9 468.7,-50.69 567.31,158.84 5.35,11.37 22.46,11.13 34.44,7.33 l 206.24,-65.41 c 29.49,-9.36 10.25,-34.17 8,-65.02 -15.85,-217.33 -627.46,-425.91 -859.41,-101.9 -22.58,31.54 5.49,74.25 43.42,66.16" /><path
             id="path58"
             style="fill:#5d574f;fill-opacity:1;fill-rule:nonzero;stroke:none"
             d="m 1973.87,2436.65 c 0.02,-0.02 0.03,-0.02 0.03,-0.02 0,0 -0.01,0 -0.03,0.02 z m 24.89,-4.9 c 118.39,-141.49 326.6,-145.99 486.71,-100.91 145.02,40.81 258.27,125.1 263.44,196.08 0.53,7.2 1.57,13.81 2.79,19.79 l -165.82,52.59 c -114.57,-195.53 -408.89,-199.93 -587.12,-167.55 z m 308,-229.94 c -152.61,-0.02 -308.12,50.13 -407.69,189.23 -22.84,31.9 -23.72,73.72 -2.25,106.53 21.51,32.83 60.29,48.8 98.71,40.59 v 0 c 140.91,-30.01 428.74,-41.5 509.5,130.18 15.78,33.56 55.76,47.84 97.11,34.71 l 206.25,-65.41 c 30.7,-9.75 63.81,-35.29 47.36,-101.75 -1.27,-5.07 -2.88,-10.61 -3.3,-16.5 -9.93,-136.22 -177.36,-243.04 -338.87,-288.47 -64.24,-18.08 -135.22,-29.11 -206.82,-29.11" /><path
             id="path60"
             style="fill:#b94620;fill-opacity:1;fill-rule:nonzero;stroke:none"
             d="m 7052.17,3764.11 252.43,-528.83 c 0,0 -169.98,-220.93 -712.58,-119.53 L 6650,3737.3 c 0,0 166.23,176.96 402.17,26.81" /><path
             id="path62"
             style="fill:#5d574f;fill-opacity:1;fill-rule:nonzero;stroke:none"
             d="m 6998.64,3715.61 c -140.58,80.18 -243.27,19.65 -282.23,-11.43 l -49.51,-530.81 c 328.19,-48.5 491.68,33.95 553.11,78.49 z m -419.33,-667.87 -62.08,11.59 66.07,708.05 16.25,17.3 c 71.07,75.69 264.87,180.9 489.78,37.83 l 16.73,-10.66 279.3,-585.1 -25.92,-33.67 c -6.56,-8.5 -138.11,-172.95 -502.8,-172.95 -80.66,0 -172.74,8.06 -277.33,27.61" /><path
             id="path64"
             style="fill:#dfdb87;fill-opacity:1;fill-rule:nonzero;stroke:none"
             d="m 5497.49,2789.13 c -76.5,65.06 -86.51,-200.23 115.35,-321.05 515.7,-308.68 1175.51,-333.98 1652.37,68.4 114.16,96.33 252.69,268.99 261.75,426.48 11.54,200.5 -235.78,222.2 -382.86,219.62 -772.81,-13.58 -714.46,-574.62 -1056.48,-591.35 -336.37,-57.31 -590.13,197.9 -590.13,197.9" /><path
             id="path66"
             style="fill:#5d574f;fill-opacity:1;fill-rule:nonzero;stroke:none"
             d="m 5534.6,2665.6 c 18.08,-45.68 53.4,-98.56 115.3,-135.62 531.54,-318.21 1147.38,-294 1568.78,61.64 108.68,91.71 228.96,248.32 236.29,375.49 2.49,43.44 -13.01,64.91 -24.89,77.26 -43.31,45.09 -144.1,68.5 -284.72,66.06 -432.25,-7.59 -577.9,-192.33 -706.35,-355.36 -91.49,-116.03 -177.96,-225.73 -343.43,-235.66 -247.1,-40.49 -450.94,67.73 -560.98,146.19 z m 888.91,-503.08 c -282.7,0 -575.59,80.77 -847.73,243.65 -158.51,94.9 -206.75,261.07 -200.45,349.61 5.21,72.87 42.97,99.29 65.05,108.56 16.15,6.72 58.57,18.3 103.84,-20.26 l 4.32,-3.97 c 3.25,-3.29 233.86,-227.75 526.98,-177.78 l 8.6,0.94 c 97.97,4.82 152.93,68.67 241.56,181.13 133.57,169.44 316.51,401.51 817.14,410.32 186.18,2.67 317.79,-33.89 391.29,-110.38 46.64,-48.52 69.04,-112.68 64.86,-185.52 -10.47,-182.33 -161.28,-371.17 -287.21,-477.48 -251.08,-211.85 -562.9,-318.82 -888.25,-318.82" /><path
             id="path68"
             style="fill:#dfdb87;fill-opacity:1;fill-rule:nonzero;stroke:none"
             d="m 6654.99,2744.41 c 0,-17.52 21.94,-31.72 49.02,-31.72 27.07,0 49.02,14.2 49.02,31.72 0,17.51 -21.95,6.34 -49.02,6.34 -27.08,0 -49.02,11.17 -49.02,-6.34" /><path
             id="path70"
             style="fill:#5d574f;fill-opacity:1;fill-rule:nonzero;stroke:none"
             d="m 6654.99,2650.01 c 46.89,0 83.63,29.13 83.63,66.31 0,18.24 -9.12,28.91 -14.57,33.66 -13.31,11.59 -32.98,-8.74 -45.21,-12.89 -18.15,-6.17 -37.09,-3.27 -54.26,4.34 -11.85,5.26 -25.57,19.93 -38.64,8.56 -5.45,-4.74 -14.58,-15.42 -14.58,-33.67 0,-37.18 36.73,-66.31 83.63,-66.31" /><path
             id="path72"
             style="fill:#dfd93d;fill-opacity:1;fill-rule:nonzero;stroke:none"
             d="m 6581.29,3603.94 c 0,0 -72.57,-364.94 -210.98,-364.94 l -121.11,84.96 66.57,80.72 -147.31,-15.73 -63.44,67.88 c 0,0 366.94,165.59 396.33,227.05" /><path
             id="path74"
             style="fill:#dfd93d;fill-opacity:1;fill-rule:nonzero;stroke:none"
             d="m 6501.35,3683.88 c 0,-44.15 35.79,-79.94 79.94,-79.94 44.15,0 79.94,35.79 79.94,79.94 0,44.15 -35.79,79.94 -79.94,79.94 -44.15,0 -79.94,-35.79 -79.94,-79.94" /><path
             id="path76"
             style="fill:#5d574f;fill-opacity:1;fill-rule:nonzero;stroke:none"
             d="m 6581.3,3638.54 c -25,0 -45.35,20.35 -45.35,45.34 0,24.98 20.35,45.33 45.35,45.33 24.98,0 45.32,-20.35 45.32,-45.33 0,-24.99 -20.34,-45.34 -45.32,-45.34 z m -201.5,-363.92 -80.12,56.18 96.75,117.29 -214.49,-22.89 -18.82,20.15 c 97.6,45.24 245.77,118.07 322.47,175.92 13.02,-19.84 32.03,-35.22 54.44,-43.94 -30.56,-129.76 -93.73,-288.58 -160.23,-302.71 z m 316.03,409.26 c 0,63.15 -51.37,114.53 -114.53,114.53 -58.96,0 -107.1,-44.95 -113.32,-102.28 -26.53,-35.11 -213.55,-133.91 -377.17,-207.76 l -44.03,-19.89 108.2,-115.77 80.12,8.57 -36.39,-44.17 160.68,-112.71 h 10.91 c 27.22,0 164.05,19.03 239.64,369 49.25,12.81 85.89,57.26 85.89,110.48" /><path
             id="path78"
             style="fill:#dfdb87;fill-opacity:1;fill-rule:nonzero;stroke:none"
             d="m 2995.88,1764.03 c -114.1,0 -382.17,28.32 -482.55,115.8 -20.63,18 -32.48,42.6 -33.34,69.29 -1.94,60.15 48.98,110.69 126.08,187.18 68.82,68.29 154.47,153.26 212.54,255.08 39.13,68.62 -48.21,258.34 -119.54,364.97 l -86.09,128.67 153.28,-21.65 c 73.48,-10.37 261.42,-35.34 349.26,-41.1 l 0.7,2.07 50.01,0.12 c 35.95,0 54.47,-23.8 74.05,-49 24.74,-31.81 240.35,-315.92 195.38,-492.79 -53.92,-211.98 -158.63,-393.68 -280.13,-486.07 -19.95,-15.17 -56.12,-32.57 -159.65,-32.57" /><path
             id="path80"
             style="fill:#5d574f;fill-opacity:1;fill-rule:nonzero;stroke:none"
             d="M 2469.39,2975.16 2641.46,2718 c 78.19,-117.53 127.12,-255.95 116.2,-293.81 -53.42,-93 -134.84,-173.78 -200.33,-238.76 -86.74,-86.06 -149.41,-148.25 -146.5,-238.52 1.48,-46.13 21.73,-88.47 57.02,-119.23 125.02,-108.98 423.55,-132.85 528.02,-132.85 98.23,0 158.5,13.96 201.54,46.68 133.54,101.51 247.67,297.44 305.31,524.11 50.69,199.32 -146.25,473.17 -207.82,552.35 -22.01,28.31 -58.86,75.7 -128.68,75.7 h -75.51 c -84.62,7.46 -226.05,25.7 -314.78,38.22 l -306.54,43.27 z m 287.19,-180.32 c 0,0 304.32,-42.97 388.3,-42.97 12.75,0 20.42,0.99 21.18,3.27 0.02,0.08 0.08,0.12 0.16,0.12 7.43,0 240.61,-305.09 202.36,-455.52 -57.46,-225.98 -164.37,-379.19 -254.93,-448.04 -16.53,-12.57 -60.72,-18.46 -117.78,-18.46 -142.83,0 -366.16,36.96 -437.07,98.78 -61.93,53.98 189.51,196.42 319.93,425.08 78.58,137.75 -122.15,437.74 -122.15,437.74" /><path
             id="path82"
             style="fill:#a4cb8e;fill-opacity:1;fill-rule:nonzero;stroke:none"
             d="m 3929.19,2281.44 c -800.52,-0.02 -1566.66,106.57 -1838.76,302.34 -37.52,26.97 -66,67.59 -80.19,114.35 -20.12,66.33 296.77,683.72 835.76,1205.24 323.39,312.91 698.05,342.75 1258.72,342.75 562.09,0 825.96,-10.47 1162.69,-331.99 457.42,-436.76 861.23,-922.54 870.63,-1010.28 13.61,-126.8 -53.56,-251 -184.25,-340.75 -378.29,-259.81 -1176.78,-281.66 -2024.6,-281.66" /><path
             id="path84"
             style="fill:#5d574f;fill-opacity:1;fill-rule:nonzero;stroke:none"
             d="m 2082.32,2709.96 c 10.28,-27.76 27.9,-51.55 50.25,-67.61 240.06,-172.73 961.95,-288.76 1796.34,-288.76 0.09,0 0.18,0 0.28,0 v 0 c 839.03,0 1622.08,20.57 1983.73,268.96 108.17,74.28 164.11,173.99 153.4,273.59 -20.2,70.59 -367.2,506.03 -848.76,965.8 -314.21,300.08 -553.65,312.03 -1112.85,312.03 -528.72,0 -898.5,-22.45 -1208.53,-322.46 C 2389.3,3361.07 2101.67,2805.26 2082.32,2709.96 Z M 3928.95,2209.3 c -696.95,0 -1556.89,83 -1880.64,315.91 -50.25,36.14 -88.3,90.08 -107.08,151.89 -39.79,131.3 359.39,798.97 854.62,1278.12 348.27,336.99 762.15,363.03 1308.86,363.03 585.22,0 858.85,-14.23 1212.52,-351.95 362.59,-346.25 877.59,-915 892.53,-1054.78 16.53,-153.96 -61.86,-302.66 -215.16,-407.89 C 5598.85,2231.83 4791.8,2209.3 3929.19,2209.3 v 0 c -0.1,0 -0.19,0 -0.24,0" /><path
             id="path86"
             style="fill:#91b37d;fill-opacity:1;fill-rule:nonzero;stroke:none"
             d="m 5444.34,3420.96 c -177.9,217.63 -365.68,524.47 -778.84,579.02 -53.47,7.07 -101.49,-28.3 -81.56,-76.75 62.54,-152.03 125.59,-328.15 186.43,-531.18 7.45,-24.83 30.7,-42.53 57.72,-43.33 187.04,-5.58 375.14,-13.44 563.43,-23.9 53.75,-2.98 85.96,55.6 52.82,96.14" /><path
             id="path88"
             style="fill:#91b37d;fill-opacity:1;fill-rule:nonzero;stroke:none"
             d="m 5585.15,3189.23 c -240.77,14.61 -422.11,17.82 -661.7,25.19 -43.98,1.36 -76.85,-34.94 -66.21,-72.55 48.39,-171.1 94.67,-358.93 137.44,-565.2 6.27,-30.23 38.18,-51.54 72.78,-47.66 248.38,27.83 455.69,74.16 595.02,151.67 110.42,61.43 167.17,146.43 155.67,233.21 -3.58,27.06 -102.89,125.75 -179.92,245.98 -10.87,16.98 -31,28.02 -53.08,29.36" /><path
             id="path90"
             style="fill:#91b37d;fill-opacity:1;fill-rule:nonzero;stroke:none"
             d="m 4612.56,3427.51 c -83.15,237.28 -169.17,431.49 -251.51,589.11 -9.13,17.48 -27.84,29.79 -49.95,32.68 -73.54,9.59 -149.68,15.52 -229.02,16.37 -87.32,0.93 -170.48,-4.21 -250.33,-13.78 -25.84,-3.09 -46.8,-19.07 -53.76,-40.6 -56.47,-174.51 -116.07,-374.22 -170.45,-586.54 -9.08,-35.46 22.69,-68.85 65.1,-68.36 285.97,3.33 578.83,3.11 875.44,-1.73 44.84,-0.73 77.37,36.08 64.48,72.85" /><path
             id="path92"
             style="fill:#91b37d;fill-opacity:1;fill-rule:nonzero;stroke:none"
             d="m 3549.21,3177.33 c -43.82,-201.21 -81.02,-408.94 -105.62,-614.26 -3.95,-32.95 24.3,-62.27 61.86,-64.16 144.45,-7.23 294.64,-10.99 446.46,-10.99 291.05,0 575.02,2.56 831.25,17.44 39.26,2.28 67.28,34.82 60.11,68.89 -46.93,223.2 -97.94,423.86 -151.12,604.32 -7.42,25.19 -33.08,42.7 -62.61,43.29 -345.08,6.86 -685.64,7.22 -1016.48,2.65 -31.32,-0.43 -57.95,-20.08 -63.85,-47.18" /><path
             id="path94"
             style="fill:#91b37d;fill-opacity:1;fill-rule:nonzero;stroke:none"
             d="m 2581.06,3198.89 c -23.25,-1.03 -44.19,-12.83 -54.98,-31 -120.12,-202.22 -204.75,-370.04 -195.49,-394.79 12,-32 36.06,-59.8 67.76,-78.26 143.55,-83.66 450.28,-143.35 824.82,-176.49 36.02,-3.19 67.89,20.05 71.67,51.76 23.05,193.92 57.05,389.79 97.24,580.44 7.66,36.37 -24.71,69.68 -66.69,68.74 -268.7,-6.04 -493.98,-9.27 -744.33,-20.4" /><path
             id="path96"
             style="fill:#91b37d;fill-opacity:1;fill-rule:nonzero;stroke:none"
             d="m 3448.24,3397.82 c 45.92,189.78 96.09,370.77 145.46,535 13.49,44.88 -33.36,72.58 -85.28,69.52 -421.23,-24.85 -643.86,-348.52 -832.85,-577.42 -32.77,-39.68 0.12,-94.95 55.78,-92.77 211.73,8.29 430.2,15 653.84,19.61 30.53,0.63 56.69,19.76 63.05,46.06" /></g></g></g></g></svg>
