<?xml version="1.0" standalone="no"?>
<!DOCTYPE svg PUBLIC "-//W3C//DTD SVG 20010904//EN"
 "http://www.w3.org/TR/2001/REC-SVG-20010904/DTD/svg10.dtd">
<svg version="1.0" xmlns="http://www.w3.org/2000/svg"
 width="2458.000000pt" height="2458.000000pt" viewBox="0 0 2458.000000 2458.000000"
 preserveAspectRatio="xMidYMid meet">
<metadata>
Created by potrace 1.11, written by Peter Selinger 2001-2013
</metadata>
<g transform="translate(0.000000,2458.000000) scale(0.100000,-0.100000)"
fill="#000000" stroke="none">
<path d="M8490 17770 c-757 -30 -1324 -93 -1840 -204 -847 -182 -1564 -523
-2180 -1035 -287 -239 -806 -769 -1246 -1271 -1121 -1282 -2171 -2868 -2513
-3799 -94 -254 -117 -435 -73 -563 59 -170 171 -345 307 -477 45 -45 78 -81
72 -81 -6 0 -65 10 -131 21 -104 19 -127 20 -184 10 -196 -36 -323 -188 -323
-386 0 -135 38 -209 202 -395 124 -141 324 -294 503 -386 64 -33 76 -42 71
-59 -70 -243 -60 -422 32 -598 146 -278 584 -504 1220 -628 l172 -34 6 -45
c10 -80 55 -203 100 -276 146 -234 500 -425 1026 -552 571 -139 1344 -196
1739 -127 163 28 294 79 402 157 141 101 347 309 492 497 71 91 224 323 290
440 145 253 298 603 398 907 l51 156 146 -6 c80 -4 254 -12 386 -18 151 -7
780 -12 1703 -13 l1463 -2 93 -175 c243 -456 472 -784 720 -1034 159 -160 218
-190 451 -231 138 -24 634 -24 845 0 80 9 155 17 166 17 16 0 41 -26 89 -90
147 -198 376 -442 485 -517 212 -144 527 -199 997 -174 1152 63 1963 339 2171
738 60 115 75 190 69 343 -11 318 -125 520 -721 1288 -146 189 -266 347 -266
351 0 4 60 24 134 44 l133 38 174 -84 c434 -210 828 -360 1253 -477 1205 -330
2449 -314 3551 47 802 262 1571 722 2116 1263 736 732 1095 1584 912 2165 -49
155 -124 277 -242 396 -126 126 -296 226 -511 303 l-95 34 -580 1215 -580
1215 -100 60 c-240 145 -456 226 -695 262 -96 14 -344 14 -440 0 -282 -42
-575 -172 -772 -341 l-56 -49 -76 6 c-241 21 -457 -135 -510 -367 -12 -52 -22
-70 -53 -97 -175 -155 -870 -527 -1570 -842 l-142 -64 22 -25 c12 -14 114
-123 226 -244 194 -207 206 -218 235 -213 69 12 276 29 282 23 3 -3 -26 -43
-64 -89 -39 -46 -68 -86 -64 -89 4 -3 157 -111 340 -239 l333 -233 61 7 c236
27 467 233 657 586 28 52 51 91 51 85 0 -5 -27 -293 -60 -640 -44 -477 -56
-632 -47 -638 8 -5 5 -14 -13 -28 -104 -86 -275 -250 -376 -361 -149 -163
-183 -203 -414 -493 -311 -390 -444 -530 -601 -632 -37 -23 -70 -43 -73 -43
-2 0 15 42 39 93 111 233 163 488 152 742 -7 153 -20 202 -93 348 -255 510
-1114 1562 -2292 2807 -576 608 -1314 1340 -1602 1588 -533 458 -1004 737
-1560 922 -469 156 -919 230 -1720 281 -211 14 -2360 21 -2660 9z m2505 -610
c537 -26 907 -68 1250 -142 622 -134 1138 -387 1660 -813 427 -349 1501 -1428
2276 -2285 776 -859 1446 -1696 1595 -1992 l37 -73 -6 -135 c-4 -105 -11 -155
-31 -224 -122 -411 -455 -738 -1041 -1022 -940 -456 -2387 -714 -4560 -814
-1316 -60 -3560 -74 -4660 -30 -2377 96 -4313 398 -5469 852 -165 65 -444 206
-557 280 -156 103 -279 265 -264 346 18 100 209 516 380 827 704 1278 1717
2616 2810 3710 349 349 543 514 825 700 860 568 1824 788 3625 829 294 7 1930
-4 2130 -14z m9057 -1861 c97 -50 119 -199 40 -283 -114 -122 -317 -38 -315
131 1 141 143 219 275 152z m-438 -487 c31 -33 80 -71 109 -87 28 -15 54 -29
56 -31 6 -5 -77 -297 -124 -434 -148 -430 -332 -732 -491 -803 l-41 -18 -166
116 -167 117 63 75 c293 354 335 408 322 411 -8 2 -209 -17 -446 -43 l-432
-46 -34 33 c-18 17 -32 36 -30 41 1 4 117 63 257 131 414 199 760 389 955 524
55 39 103 70 107 71 4 1 32 -25 62 -57z m3211 -2086 c387 -54 627 -161 721
-321 97 -166 52 -460 -125 -810 -447 -885 -1507 -1668 -2698 -1995 -287 -79
-584 -134 -888 -167 -236 -25 -847 -25 -1080 0 -543 59 -1041 175 -1537 358
-103 38 -206 78 -229 88 l-42 19 110 55 c137 69 280 151 404 232 94 61 98 63
180 69 125 10 341 35 454 52 338 53 649 239 940 561 53 59 211 250 350 423
139 173 302 369 363 436 590 647 1288 950 2347 1018 138 9 623 -3 730 -18z
m-21800 -2830 c205 -28 399 -38 665 -35 l265 3 205 -72 c218 -76 411 -133 684
-203 l169 -43 -39 -13 c-21 -8 -91 -27 -154 -43 -644 -164 -1248 -97 -1669
184 -141 94 -315 261 -254 242 10 -3 68 -12 128 -20z m14320 -639 c50 -67 193
-254 319 -417 268 -344 369 -480 455 -608 120 -178 190 -337 175 -396 -17 -70
-188 -166 -446 -251 -622 -205 -1634 -280 -1873 -140 -142 84 -462 494 -679
874 -152 263 -374 736 -362 767 4 9 22 14 53 14 61 0 577 44 833 70 428 45
952 119 1265 179 83 16 155 29 160 30 6 0 51 -55 100 -122z m-10775 8 c568
-77 1656 -185 1861 -185 27 0 49 -4 49 -9 0 -5 -22 -69 -48 -142 -143 -393
-314 -719 -529 -1008 -114 -154 -348 -388 -423 -424 -232 -112 -1031 -70
-1660 88 -296 74 -555 186 -633 273 -47 52 -23 143 70 265 26 34 194 211 373
392 337 343 476 494 620 678 75 95 87 107 110 103 14 -3 108 -17 210 -31z"/>
<path d="M8980 16719 c-74 -5 -222 -18 -329 -29 -217 -22 -275 -40 -329 -106
-30 -36 -88 -206 -258 -759 -188 -613 -504 -1755 -504 -1820 0 -37 33 -111 63
-143 12 -13 45 -36 72 -50 l50 -27 915 3 c503 2 1357 -2 1897 -7 1124 -12
1047 -17 1139 74 68 67 84 126 59 212 -47 160 -324 883 -485 1263 -175 413
-539 1180 -587 1235 -28 32 -85 71 -122 84 -40 13 -203 34 -441 57 -196 18
-934 27 -1140 13z"/>
<path d="M7025 16460 c-927 -104 -1685 -517 -2445 -1335 -305 -329 -902 -1053
-933 -1133 -46 -117 23 -250 154 -298 49 -18 100 -17 909 11 486 16 975 31
1568 45 374 10 418 13 467 31 58 21 126 81 143 126 6 16 50 181 96 368 141
561 290 1108 466 1706 39 130 70 249 70 265 -1 43 -32 105 -73 141 -78 68
-228 94 -422 73z"/>
<path d="M11792 16442 c-69 -25 -122 -68 -149 -122 -40 -77 -33 -112 68 -366
228 -572 447 -1194 643 -1833 84 -274 97 -298 189 -345 56 -28 56 -28 319 -37
456 -15 1048 -39 1468 -60 710 -35 739 -35 790 -12 63 28 104 66 127 115 56
120 39 182 -95 350 -54 68 -174 220 -267 338 -564 719 -919 1082 -1355 1387
-398 279 -821 460 -1305 559 -217 44 -358 53 -433 26z"/>
<path d="M7880 13230 c-346 -5 -356 -6 -407 -29 -56 -25 -117 -84 -134 -129
-20 -52 -154 -704 -228 -1112 -75 -408 -152 -909 -206 -1325 -24 -187 -24
-202 -10 -252 27 -93 107 -155 223 -173 70 -11 431 -26 1017 -41 501 -13 2478
-6 3055 10 817 24 1276 47 1350 68 72 20 152 97 170 163 16 61 13 85 -75 480
-194 879 -520 2120 -579 2210 -13 20 -41 47 -62 62 -79 55 -93 56 -959 67
-801 11 -2488 12 -3155 1z"/>
<path d="M5800 13195 c-1483 -35 -1794 -44 -2300 -66 -284 -12 -329 -22 -392
-83 -93 -91 -679 -1162 -795 -1456 -64 -159 -75 -211 -58 -260 22 -62 83 -150
145 -210 236 -226 961 -463 1930 -629 582 -100 1609 -220 1713 -200 93 17 174
74 203 144 7 17 27 139 44 271 82 635 185 1253 320 1925 33 163 60 316 60 340
-1 121 -110 221 -255 232 -33 3 -310 -1 -615 -8z"/>
<path d="M12983 13179 c-123 -23 -213 -122 -213 -233 0 -24 29 -149 65 -277
139 -496 406 -1609 500 -2079 21 -105 42 -148 96 -193 49 -43 115 -67 180 -67
105 0 657 78 969 136 1310 246 2039 648 2181 1203 25 96 26 258 3 304 -23 45
-104 152 -269 357 -174 215 -298 379 -400 530 -43 63 -88 126 -99 138 -24 28
-98 67 -141 76 -100 20 -1283 70 -2290 96 -214 5 -424 12 -465 14 -41 2 -94 0
-117 -5z"/>
<path d="M19968 11243 c-40 -43 -51 -73 -51 -134 0 -107 75 -205 192 -251 80
-31 232 -31 312 0 179 71 252 259 147 378 -28 31 -36 35 -65 31 -19 -3 -57
-21 -86 -39 -49 -31 -57 -33 -142 -33 -85 0 -94 3 -161 38 -84 44 -112 46
-146 10z"/>
</g>
</svg>
